<svg viewBox="0 0 1200 300" xmlns="http://www.w3.org/2000/svg" font-family="'Sora','Inter',sans-serif">
  <defs>
    <linearGradient id="bgW" x1="0" y1="0" x2="1" y2="1">
      <stop offset="0%" stop-color="#FFADAD"/>
      <stop offset="100%" stop-color="#FF8B8B"/>
    </linearGradient>
    <radialGradient id="glowW" cx="85%" cy="25%" r="70%">
      <stop offset="0%" stop-color="#FFFFFF" stop-opacity="0.35"/>
      <stop offset="100%" stop-color="#FFFFFF" stop-opacity="0"/>
    </radialGradient>
  </defs>
  <rect width="1200" height="300" rx="24" fill="url(#bgW)"/>
  <rect width="1200" height="300" rx="24" fill="url(#glowW)"/>
  <circle cx="1080" cy="60" r="120" fill="#FFFFFF" opacity="0.08"/>
  <circle cx="1150" cy="250" r="90" fill="#FFFFFF" opacity="0.08"/>
  <circle cx="80" cy="240" r="70" fill="#FFFFFF" opacity="0.10"/>

  <!-- WhatsApp icon badge -->
  <g transform="translate(90,150)">
    <circle r="72" fill="#FFFFFF"/>
    <circle r="72" fill="none" stroke="#FFFFFF" stroke-opacity="0.6" stroke-width="2"/>
    <g transform="translate(-38,-38) scale(1.58)">
      <path d="M24 4C12.95 4 4 12.95 4 24c0 3.9 1.09 7.55 2.98 10.66L4 44l9.6-2.9A19.9 19.9 0 0 0 24 44c11.05 0 20-8.95 20-20S35.05 4 24 4z" fill="#25D366"/>
      <path d="M35.2 28.4c-.56-.28-3.32-1.64-3.84-1.83-.52-.19-.9-.28-1.28.28-.38.56-1.46 1.83-1.79 2.2-.33.38-.66.42-1.22.14-.56-.28-2.36-.87-4.5-2.78-1.66-1.48-2.79-3.3-3.11-3.86-.33-.56-.03-.86.25-1.14.25-.25.56-.66.84-.99.28-.33.37-.56.56-.94.19-.38.09-.7-.05-.98-.14-.28-1.28-3.08-1.75-4.22-.46-1.1-.93-.95-1.28-.97-.33-.02-.7-.02-1.08-.02-.38 0-.98.14-1.5.7-.52.56-1.97 1.92-1.97 4.69 0 2.77 2.02 5.44 2.3 5.82.28.38 3.97 6.06 9.62 8.5 1.34.58 2.39.92 3.2 1.18 1.35.43 2.58.37 3.55.22 1.08-.16 3.32-1.36 3.79-2.67.47-1.31.47-2.43.33-2.67-.14-.24-.51-.38-1.07-.65z" fill="#FFFFFF"/>
    </g>
  </g>

  <text x="205" y="128" font-size="42" font-weight="800" fill="#5A2323">WhatsApp Support</text>
  <text x="205" y="172" font-size="24" font-weight="500" fill="#7A3A3A">Chat with us anytime — fast replies</text>
  <text x="205" y="206" font-size="24" font-weight="500" fill="#7A3A3A">on all your orders &amp; questions</text>

  <g transform="translate(950,150)">
    <rect x="-95" y="-32" width="190" height="64" rx="32" fill="#FFFFFF"/>
    <text x="0" y="8" font-size="22" font-weight="800" fill="#25A25A" text-anchor="middle">Chat Now</text>
  </g>
</svg>
